<?xml version="1.0" encoding="UTF-8" standalone="no"?>
<!-- Created with Inkscape (http://www.inkscape.org/) -->

<svg
   width="60mm"
   height="60mm"
   viewBox="0 0 60 60"
   version="1.1"
   id="svg1"
   xml:space="preserve"
   inkscape:version="1.4 (86a8ad7, 2024-10-11)"
   sodipodi:docname="vgnc.svg"
   xmlns:inkscape="http://www.inkscape.org/namespaces/inkscape"
   xmlns:sodipodi="http://sodipodi.sourceforge.net/DTD/sodipodi-0.dtd"
   xmlns="http://www.w3.org/2000/svg"
   xmlns:svg="http://www.w3.org/2000/svg"><sodipodi:namedview
     id="namedview1"
     pagecolor="#ffffff"
     bordercolor="#000000"
     borderopacity="0.25"
     inkscape:showpageshadow="2"
     inkscape:pageopacity="0.0"
     inkscape:pagecheckerboard="0"
     inkscape:deskcolor="#d1d1d1"
     inkscape:document-units="mm"
     inkscape:zoom="2.8177467"
     inkscape:cx="343.35947"
     inkscape:cy="142.13485"
     inkscape:window-width="2560"
     inkscape:window-height="1017"
     inkscape:window-x="-8"
     inkscape:window-y="-8"
     inkscape:window-maximized="1"
     inkscape:current-layer="svg1" /><defs
     id="defs1"><linearGradient
       id="swatch4"
       inkscape:swatch="solid"><stop
         style="stop-color:#d80621;stop-opacity:1;"
         offset="0"
         id="stop5" /></linearGradient><rect
       x="192.82547"
       y="269.95566"
       width="410.44278"
       height="399.42419"
       id="rect1" /></defs><rect
     style="fill:#068ad8;fill-opacity:1;stroke-width:0.644197"
     id="rect2"
     width="60"
     height="60"
     x="-1.7763568e-15"
     y="-1.8596236e-15" /><g
     id="text1"
     style="font-size:92.4949px;line-height:0.5;white-space:pre;fill:#06d854;fill-opacity:1"
     transform="matrix(0.55067592,0,0,0.42662729,-99.631253,-110.8816)"
     aria-label="VG&#10;NC"><path
       style="font-size:92.4949px;line-height:0.5;font-family:'DOCALLISME ON STREET';-inkscape-font-specification:'DOCALLISME ON STREET';white-space:pre;fill:#06d854;fill-opacity:1"
       d="m 181.96434,281.40064 c 4.82845,3.78562 7.65234,8.99227 9.8707,14.60229 4.32233,10.09635 9.06501,20.01581 13.43368,30.08702 3.1316,0.18785 6.26116,0.43836 9.39402,0.58713 7.08362,-17.77815 14.55012,-35.43322 21.7914,-53.15748 -3.97896,-1.27841 -10.55972,-4.2414 -13.62682,-2.87069 -4.2872,12.18003 -8.57439,24.36007 -12.86159,36.5401 -4.18396,-13.22533 -7.64575,-26.70649 -11.66348,-39.98666 -4.10221,-1.21475 -10.74181,-5.53911 -13.77064,-3.97015 -2.50051,5.76997 -2.83799,11.96948 -2.56728,18.16844 z m 1.9872,-20.16552 c 0.72328,-0.82028 2.34357,0.5637 3.40985,0.70001 3.91766,1.46773 8.01923,2.67066 11.81026,4.33565 4.17948,6.88444 8.61384,13.5831 12.66829,20.52678 0.60574,2.15035 1.21446,4.30237 1.87428,6.4358 2.97222,-8.2116 5.77855,-16.54396 8.78426,-24.72703 5.13722,1.19509 10.31997,2.53832 15.37818,3.97435 1.26825,6.41997 3.31943,12.73446 4.67443,19.13815 -2.31399,6.45454 -5.23348,12.78247 -7.72297,19.20569 -3.44732,8.18176 -6.72511,16.47895 -10.20691,24.6367 -2.73699,0.51859 -5.81973,-0.1954 -8.67139,-0.33873 -3.80971,-2.8039 -7.80177,-5.49081 -11.49409,-8.33261 -5.66694,-12.66892 -11.39195,-25.35111 -17.09427,-38.0051 -2.11911,-2.33342 -4.2997,-4.60044 -6.43578,-6.90999 0.16442,-4.13738 -0.17073,-8.37468 0.56452,-12.44256 0.87633,-2.71406 1.65227,-5.46162 2.46134,-8.19711 z m 48.75403,52.9994 c 2.49536,5.1698 4.80265,10.45181 7.58747,15.46851 5.37162,2.65367 9.49351,-1.48285 14.16441,-3.87418 5.85757,-3.42312 11.84647,-6.66815 17.57426,-10.28459 1.23517,-5.3523 8.80198,-13.37597 1.36055,-16.69357 -2.04575,-1.04802 -4.66351,0.54067 -6.95574,0.62882 -3.25723,0.61275 -6.51447,1.22549 -9.7717,1.83824 -0.64734,2.31087 -1.29469,4.62174 -1.94203,6.93261 2.29581,-0.21829 4.59162,-0.43658 6.88743,-0.65487 -4.29053,3.22166 -8.58107,6.44333 -12.8716,9.66499 2.62701,-11.89306 5.25402,-23.78613 7.88103,-35.67919 1.14414,5.25402 2.28829,10.50805 3.43243,15.76207 4.923,-2.535 10.59446,-5.50747 9.3058,-12.01455 0.73464,-6.11124 0.88444,-12.29549 1.73668,-18.3805 -4.80991,-1.88934 -9.61983,-3.77868 -14.42974,-5.66802 -5.0471,3.62104 -11.0523,6.91556 -11.35863,13.85956 -2.92927,7.59611 -4.80568,15.52737 -7.60864,23.16747 -1.33864,5.40285 -3.33723,10.61723 -4.99198,15.9272 z m 23.46245,-54.1059 c 1.49535,-0.34927 3.2062,1.06165 4.78733,1.42251 3.7615,1.62202 7.66489,2.94592 11.40379,4.60598 4.08116,5.50762 8.31143,10.90703 12.41997,16.39436 0.003,5.39996 -1.00546,10.82118 -1.33261,16.23629 -0.36292,1.78941 0.0376,4.23423 -1.01634,5.39708 -0.086,0.74187 2.11829,1.88693 2.91305,2.82274 1.44722,1.46363 3.70848,2.4077 4.53889,4.33561 -1.45317,3.76396 -2.58338,7.83463 -4.31252,11.38121 -4.55915,3.0955 -9.62584,5.59684 -14.362,8.49074 -2.77063,1.33869 -5.21658,3.47939 -8.15201,4.3357 -7.97797,-1.59528 -16.0647,-2.88727 -23.95925,-4.78602 -2.56031,-5.53007 -5.44716,-10.96854 -7.7681,-16.57501 5.00767,-15.5918 9.90988,-31.23577 14.92367,-46.83458 3.33026,-2.39701 6.56512,-4.85938 9.91613,-7.22661 z"
       id="path1" /><path
       style="font-size:92.4949px;line-height:0.5;font-family:'DOCALLISME ON STREET';-inkscape-font-specification:'DOCALLISME ON STREET';white-space:pre;fill:#06d854;fill-opacity:1"
       d="m 210.16897,348.30916 0.0452,0.27098 z m -19.96228,44.98287 c 4.69701,-2.30334 9.39401,-4.60668 14.09102,-6.91002 -1.36243,-8.02405 -2.72487,-16.04811 -4.0873,-24.07216 5.3054,8.78128 10.13602,17.87419 15.53625,26.60132 3.21983,0.55888 9.863,6.82539 8.91224,0.31194 0.57458,-7.17208 1.14915,-14.34415 1.72373,-21.51622 2.90729,0.2565 1.73308,-3.09169 2.25978,-4.93767 0.37583,-3.95439 0.75166,-7.90877 1.12749,-11.86316 -4.27391,2.58893 -0.43077,-6.70694 -1.28151,-9.07223 0.15347,-4.85315 1.79898,-11.06334 -1.28124,-14.73969 -5.69446,2.17143 -11.38893,4.34286 -17.08339,6.51429 1.16673,13.07484 2.33345,26.14968 3.50018,39.22452 -7.72296,-15.70938 -15.44593,-31.41876 -23.16889,-47.12814 -1.92698,1.08393 -3.85395,2.16785 -5.78093,3.25178 1.84419,21.44515 3.68838,42.89029 5.53257,64.33544 z m 37.41798,-67.70012 c 1.3381,0.23597 1.59379,2.84829 2.48396,4.04213 3.13803,6.55113 6.73313,12.88695 9.3261,19.73646 -0.1525,4.29381 -0.70223,8.73879 -0.60971,12.93935 2.01561,2.30484 0.65707,5.5041 0.61817,8.30422 -0.27111,2.77225 -0.54178,5.54455 -0.82143,8.31596 -2.15185,0.38738 -1.51787,2.73476 -1.76783,4.73424 -0.37097,5.29284 -0.86499,10.57664 -1.34845,15.86029 -1.6952,0.83859 -3.35717,-1.0661 -5.03574,-1.44524 -3.90376,-1.5804 -7.50096,-3.82543 -11.15539,-5.89384 0.74558,1.69964 -0.15864,2.71601 -1.80668,3.184 -3.58499,1.67607 -7.05766,3.77824 -10.71455,5.15054 -5.92543,-1.63129 -11.76239,-4.16258 -17.67073,-5.64754 -1.80693,-22.20923 -3.9243,-44.41177 -5.6213,-66.61621 2.56182,-1.27007 4.94288,-3.00017 7.51973,-4.06463 3.04964,3.98208 6.58723,7.70996 9.84562,11.58444 2.52273,3.17341 5.59373,5.99409 7.79071,9.4166 0.64411,1.16966 1.92138,4.58706 1.35485,1.46781 -0.34965,-4.59989 -0.95687,-9.19896 -1.1738,-13.79746 6.26923,-2.41284 12.50115,-4.92436 18.78647,-7.27112 z m 22.17529,18.92351 c 4.54372,2.81785 6.74357,14.99726 13.02368,9.82484 3.44419,-1.98556 8.11583,-2.8822 4.65195,-7.12846 -2.98636,-6.86037 -5.97271,-13.72075 -8.95907,-20.58113 -5.32464,2.75339 -11.84456,4.737 -16.07115,8.71796 -2.61222,5.99418 -1.67902,15.34664 -6.18317,19.51629 -2.13348,0.41974 -1.05029,4.34189 -1.77751,6.29281 -1.39846,11.32114 -2.79691,22.64229 -4.19537,33.96343 8.92732,1.13661 17.85465,2.27323 26.78197,3.40984 5.45726,-10.04136 10.91452,-20.08271 16.37178,-30.12407 -2.70981,-2.02483 -5.41963,-4.04967 -8.12944,-6.0745 -5.96911,6.30784 -11.93822,12.61568 -17.90733,18.92352 0.79789,-12.24684 1.59577,-24.49369 2.39366,-36.74053 z m 8.80689,-19.28482 c 1.15673,0.0299 1.69073,2.05317 2.70981,2.82272 3.16725,4.30307 6.72225,8.3415 9.77791,12.73611 2.78057,6.66316 5.90937,13.23439 8.60365,19.89454 -0.6003,1.64398 -2.91363,1.82087 -4.24537,2.82272 -0.77049,0.8554 -4.32613,1.39939 -3.20661,2.43883 3.57491,2.70604 7.12392,5.38683 10.65859,8.10685 0.28384,1.95975 -1.63264,3.60691 -2.30334,5.39704 -3.7116,6.71683 -7.19164,13.60468 -11.06507,20.16552 -5.91559,0.22085 -12.01859,0.42841 -17.92585,-0.59671 -7.51405,-0.95737 -15.03337,-1.87206 -22.54067,-2.88089 1.57352,-14.04623 3.43613,-28.07738 5.14865,-42.11498 2.12939,0.085 3.11577,-1.00382 3.20661,-3.09371 1.4595,-5.80324 2.71181,-11.75582 4.35826,-17.4557 5.58411,-2.79224 11.21286,-5.51821 16.82343,-8.24234 z"
       id="path2" /></g><path
     id="path17"
     style="fill:#d80621;stroke-width:0.271244"
     d="m 49.165365,30.027625 c -0.346915,0.07161 -0.341371,0.522059 -0.495773,0.788294 -0.219213,0.553901 -0.438427,1.107801 -0.65764,1.661702 -0.498498,-0.199422 -0.975179,-0.477256 -1.487896,-0.625577 -0.365122,0.159487 -0.130788,0.619649 -0.159682,0.930071 0.116316,1.625699 0.232631,3.251399 0.348947,4.877099 -0.545156,0.319136 -1.127176,0.585916 -1.648964,0.938241 -0.1357,0.353599 0.370071,0.471393 0.567358,0.687853 0.925358,0.692002 1.850716,1.384004 2.776074,2.076006 -0.969278,0.969277 -1.938555,1.938555 -2.907833,2.907832 0.181647,0.287115 0.363271,0.298746 0.544867,0.0049 0.87895,-0.879263 1.757901,-1.758525 2.636851,-2.637788 0.827512,1.106565 1.655023,2.213129 2.482535,3.319694 0.380967,0.216603 0.482256,-0.385671 0.663217,-0.617529 0.185621,-0.336072 0.371243,-0.672143 0.556864,-1.008214 1.851567,0.132464 3.703133,0.264927 5.5547,0.397391 0.493596,-0.11637 0.071,-0.610014 -0.01888,-0.89794 -0.117904,-0.265682 -0.235807,-0.531363 -0.353711,-0.797045 0.764639,-0.302135 1.529277,-0.604269 2.293916,-0.906404 0.429387,-0.341832 -0.245844,-0.52596 -0.488417,-0.688902 -0.417519,-0.230459 -0.835039,-0.460917 -1.252559,-0.691376 0.283282,-0.546663 0.626918,-1.068483 0.872088,-1.630834 -0.124727,-0.340643 -0.586161,-0.101223 -0.87219,-0.136342 -0.906198,0.06523 -1.812397,0.130461 -2.718596,0.195692 1.366497,-0.925525 2.732995,-1.85105 4.099492,-2.776575 0.332656,-0.385426 -0.330643,-0.473026 -0.57445,-0.620904 -0.287041,-0.127381 -0.574083,-0.254763 -0.861124,-0.382144 0.335725,-1.061778 0.671449,-2.123557 1.007174,-3.185335 -0.03882,-0.460735 -0.569857,-0.08484 -0.84246,-0.04391 -0.859679,0.271639 -1.719357,0.543278 -2.579036,0.814917 -0.243847,-0.500768 -0.420372,-1.044571 -0.706764,-1.518144 -0.367227,-0.06557 -0.464736,0.422729 -0.676909,0.645145 -0.798303,1.178801 -1.596605,2.357601 -2.394908,3.536402 0.0813,-1.131886 0.162609,-2.263772 0.243913,-3.395658 -0.144526,-0.42466 -0.584557,0.05044 -0.847052,0.142686 -0.322953,0.178264 -0.645905,0.356528 -0.968858,0.534792 -0.356977,-0.61989 -0.671435,-1.270412 -1.055291,-1.870938 l -0.07901,-0.02714 z m -3.546554,8.686291 c 0.212218,0.159508 0.424436,0.319016 0.636654,0.478524 -0.210907,-0.159363 -0.432279,-0.319755 -0.636654,-0.478524 z" /></svg>
